<svg data-name="Light 1px/calendar" xmlns="http://www.w3.org/2000/svg" width="20.833" height="20.313" viewBox="0 0 20.833 20.313">
    <path data-name="Combined Shape" d="M17.708 20.313H3.125A3.129 3.129 0 0 1 0 17.187V4.688a3.128 3.128 0 0 1 3.125-3.125h1.563V.521a.521.521 0 1 1 1.042 0v1.042h9.37V.521a.521.521 0 1 1 1.042 0v1.042h1.563a3.128 3.128 0 0 1 3.125 3.125v12.5a3.129 3.129 0 0 1-3.122 3.125zM1.042 9.375v7.812a2.086 2.086 0 0 0 2.083 2.084h14.583a2.086 2.086 0 0 0 2.083-2.084V9.375zM3.125 2.6a2.085 2.085 0 0 0-2.083 2.088v3.645h18.75V4.688A2.085 2.085 0 0 0 17.708 2.6h-1.562v1.046a.521.521 0 0 1-1.042 0V2.6H5.729v1.046a.521.521 0 0 1-1.042 0V2.6z"/>
</svg>
