<svg data-name="Light 1px/pie_chart" xmlns="http://www.w3.org/2000/svg" width="19.792" height="19.792" viewBox="0 0 19.792 19.792">
    <path data-name="Combined Shape" d="M8.334 19.792a8.334 8.334 0 1 1 0-16.667.521.521 0 0 1 .52.521v7.291h7.292a.522.522 0 0 1 .521.521 8.334 8.334 0 0 1-8.334 8.333zM7.813 4.185a7.292 7.292 0 1 0 7.794 7.793H8.334a.52.52 0 0 1-.521-.52z"/>
    <path data-name="Combined Shape" d="M19.271 8.854h-7.812a.517.517 0 0 1-.368-.154.525.525 0 0 1-.153-.367V.521A.522.522 0 0 1 11.459 0a8.281 8.281 0 0 1 5.892 2.44 8.279 8.279 0 0 1 2.44 5.893.521.521 0 0 1-.52.521zM11.98 1.06v6.752h6.751A7.291 7.291 0 0 0 11.98 1.06z"/>
</svg>
