<svg data-name="Light 1px/add_circled" xmlns="http://www.w3.org/2000/svg" width="20.833" height="20.833" viewBox="0 0 20.833 20.833">
    <path d="M10.417 5.729a.521.521 0 0 0-.521.521v3.646H6.25a.521.521 0 1 0 0 1.042h3.646v3.645a.521.521 0 1 0 1.042 0v-3.646h3.645a.521.521 0 1 0 0-1.042h-3.646V6.25a.521.521 0 0 0-.52-.521z"/>
    <path data-name="Combined Shape" d="M10.417 20.833a10.417 10.417 0 1 1 10.416-10.416 10.428 10.428 0 0 1-10.416 10.416zm0-19.792a9.375 9.375 0 1 0 9.375 9.375 9.386 9.386 0 0 0-9.375-9.374z"/>
</svg>
