<svg data-name="Light 1px/chevron_double_backward" xmlns="http://www.w3.org/2000/svg" width="13.891" height="14.583" viewBox="0 0 13.891 14.583">
    <path data-name="Vector 474 (Stroke)" d="M7.228 13.694 1.194 7.66a.521.521 0 0 1 0-.737L7.228.889a.521.521 0 0 0-.736-.736L.458 6.187a1.563 1.563 0 0 0 0 2.21l6.034 6.034a.521.521 0 0 0 .737-.737z"/>
    <path data-name="Vector 475 (Stroke)" d="M13.738 13.694 7.704 7.66a.521.521 0 0 1 0-.737L13.738.889a.521.521 0 0 0-.736-.736L6.968 6.187a1.563 1.563 0 0 0 0 2.21l6.034 6.034a.521.521 0 0 0 .737-.737z"/>
</svg>
