<svg data-name="Light 1px/group" xmlns="http://www.w3.org/2000/svg" width="19.792" height="18.229" viewBox="0 0 19.792 18.229">
    <path d="M18.75 15.626v2.083a.521.521 0 1 0 1.042 0v-2.083a4.688 4.688 0 0 0-4.688-4.688h-.872a5.762 5.762 0 0 1 1.132 1.051 3.646 3.646 0 0 1 3.386 3.637z"/>
    <path data-name="Vector 631 (Stroke)" d="M1.042 15.626v2.083a.521.521 0 1 1-1.042 0v-2.083a4.688 4.688 0 0 1 4.688-4.688h6.25a4.687 4.687 0 0 1 4.687 4.688v2.083a.521.521 0 1 1-1.042 0v-2.083a3.646 3.646 0 0 0-3.646-3.646H4.688a3.646 3.646 0 0 0-3.646 3.646z"/>
    <path data-name="Subtract" d="M15.104 4.167a3.125 3.125 0 0 0-3.124-3.125A5.239 5.239 0 0 0 11.067.1a4.167 4.167 0 1 1 0 8.133 5.239 5.239 0 0 0 .913-.942 3.125 3.125 0 0 0 3.124-3.124z"/>
    <path data-name="Combined Shape" d="M7.812 8.333a4.167 4.167 0 1 1 4.167-4.167 4.171 4.171 0 0 1-4.167 4.167zm0-7.292a3.125 3.125 0 1 0 3.126 3.125 3.128 3.128 0 0 0-3.126-3.124z"/>
</svg>
