<svg data-name="Light 1px/home" xmlns="http://www.w3.org/2000/svg" width="20.833" height="20.795" viewBox="0 0 20.833 20.795">
    <path data-name="Combined Shape" d="M17.708 20.8H3.125A3.128 3.128 0 0 1 0 17.671V9.687a3.129 3.129 0 0 1 1.034-2.322L8.326.8a3.125 3.125 0 0 1 4.181 0L19.8 7.365a3.129 3.129 0 0 1 1.034 2.322v7.984a3.128 3.128 0 0 1-3.126 3.129zM9.375 10.379h2.083a3.129 3.129 0 0 1 3.126 3.121v6.25h3.125a2.085 2.085 0 0 0 2.083-2.083v-7.98a2.082 2.082 0 0 0-.69-1.548l-7.291-6.562a2.082 2.082 0 0 0-2.787 0L1.732 8.139a2.082 2.082 0 0 0-.69 1.548v7.984a2.085 2.085 0 0 0 2.083 2.083H6.25V13.5a3.128 3.128 0 0 1 3.125-3.121zm0 1.042A2.085 2.085 0 0 0 7.292 13.5v6.25h6.249V13.5a2.085 2.085 0 0 0-2.083-2.083z"/>
</svg>
