<svg data-name="Light 1px/mail" xmlns="http://www.w3.org/2000/svg" width="20.833" height="16.667" viewBox="0 0 20.833 16.667">
    <path data-name="Combined Shape" d="M17.708 16.667H3.125A3.129 3.129 0 0 1 0 13.541V3.125A3.128 3.128 0 0 1 3.125 0h14.583a3.128 3.128 0 0 1 3.125 3.125v10.416a3.129 3.129 0 0 1-3.125 3.126zM1.042 3.592v9.95a2.086 2.086 0 0 0 2.083 2.084h14.583a2.086 2.086 0 0 0 2.083-2.084v-9.95L11.887 9a2.6 2.6 0 0 1-2.94 0zm2.083-2.55a2.09 2.09 0 0 0-1.959 1.372L9.534 8.14a1.563 1.563 0 0 0 1.764 0l8.369-5.726a2.09 2.09 0 0 0-1.959-1.372z"/>
</svg>
