<svg data-name="Light 1px/notification" xmlns="http://www.w3.org/2000/svg" width="20.833" height="20.833" viewBox="0 0 20.833 20.833">
    <path data-name="Combined Shape" d="M10.417 20.833a4.171 4.171 0 0 1-4.167-4.166H1.462a1.463 1.463 0 0 1-1.016-2.515l1.072-1.036a2.092 2.092 0 0 0 .636-1.5l-.01-3.284A8.3 8.3 0 1 1 18.75 8.3v3.335a2.069 2.069 0 0 0 .61 1.473l1.04 1.044a1.474 1.474 0 0 1-1.042 2.515h-4.774a4.172 4.172 0 0 1-4.167 4.166zm-3.125-4.166a3.125 3.125 0 1 0 6.249 0zm3.155-15.625a7.261 7.261 0 0 0-7.26 7.283l.013 3.284a3.141 3.141 0 0 1-.954 2.257L1.17 14.9a.421.421 0 0 0 .293.724h17.9a.432.432 0 0 0 .431-.432.425.425 0 0 0-.127-.3l-1.042-1.042a3.1 3.1 0 0 1-.915-2.21V8.3a7.269 7.269 0 0 0-7.263-7.258z"/>
</svg>
