<svg data-name="Light 1px/person" xmlns="http://www.w3.org/2000/svg" width="17.708" height="20.313" viewBox="0 0 17.708 20.313">
    <path data-name="Vector 631 (Stroke)" d="M1.042 18.75v1.042a.521.521 0 1 1-1.042 0V18.75a5.729 5.729 0 0 1 5.729-5.729h6.25a5.729 5.729 0 0 1 5.729 5.729v1.042a.521.521 0 1 1-1.042 0V18.75a4.687 4.687 0 0 0-4.687-4.687h-6.25a4.688 4.688 0 0 0-4.687 4.687z"/>
    <path data-name="Combined Shape" d="M8.855 10.417a5.208 5.208 0 1 1 5.208-5.208 5.214 5.214 0 0 1-5.208 5.208zm0-9.375a4.167 4.167 0 1 0 4.166 4.167 4.172 4.172 0 0 0-4.166-4.167z"/>
</svg>
