<svg data-name="Light 1px/video_recorder" xmlns="http://www.w3.org/2000/svg" width="20.833" height="14.584" viewBox="0 0 20.833 14.584">
    <path data-name="Combined Shape" d="M12.5 14.584H3.125A3.129 3.129 0 0 1 0 11.458V3.125A3.128 3.128 0 0 1 3.125 0H12.5a3.129 3.129 0 0 1 3.126 3.125v1.216l2.646-2.2a1.534 1.534 0 0 1 .992-.365 1.571 1.571 0 0 1 1.57 1.565v7.912a1.572 1.572 0 0 1-1.571 1.566 1.534 1.534 0 0 1-.991-.365l-2.646-2.2v1.215a3.129 3.129 0 0 1-3.126 3.115zM3.125 1.042a2.085 2.085 0 0 0-2.083 2.083v8.333a2.085 2.085 0 0 0 2.083 2.083H12.5a2.086 2.086 0 0 0 2.084-2.083V3.125A2.086 2.086 0 0 0 12.5 1.042zm16.144 1.772a.512.512 0 0 0-.331.122L15.625 5.7v3.187l3.312 2.76a.512.512 0 0 0 .331.121.534.534 0 0 0 .363-.144.513.513 0 0 0 .161-.377V3.336a.523.523 0 0 0-.523-.522z"/>
</svg>
